<?xml version="1.0" standalone="no"?>
<!DOCTYPE svg PUBLIC "-//W3C//DTD SVG 20010904//EN"
 "http://www.w3.org/TR/2001/REC-SVG-20010904/DTD/svg10.dtd">
<svg version="1.0" xmlns="http://www.w3.org/2000/svg"
 width="300.000000pt" height="300.000000pt" viewBox="0 0 300.000000 300.000000"
 preserveAspectRatio="xMidYMid meet">
<metadata>
Created by potrace 1.10, written by Peter Selinger 2001-2011
</metadata>
<g transform="translate(0.000000,300.000000) scale(0.100000,-0.100000)"
fill="#000000" stroke="none">
<path d="M1285 2983 c-65 -8 -184 -37 -262 -64 -97 -32 -203 -79 -203 -89 0
-3 11 -17 24 -29 l24 -22 38 19 c71 36 213 81 326 104 145 28 378 31 513 5
308 -60 541 -183 760 -402 281 -280 418 -610 418 -1005 1 -395 -136 -724 -418
-1005 -281 -281 -611 -419 -1005 -419 -301 0 -552 78 -812 250 -102 68 -301
269 -370 374 -113 173 -181 339 -219 532 -32 159 -32 379 -1 536 23 113 68
255 104 326 l19 38 -22 24 c-12 13 -26 24 -29 24 -18 0 -87 -182 -126 -330
-27 -106 -45 -312 -21 -252 7 18 15 31 17 28 5 -4 4 -235 0 -261 -1 -5 -8 8
-15 30 l-13 40 -1 -50 c-2 -135 66 -390 147 -552 103 -203 286 -418 465 -547
222 -158 551 -278 757 -275 l45 0 -39 15 c-22 8 -41 15 -42 17 -2 1 71 3 162
2 147 0 175 -5 100 -21 -10 -2 -21 -6 -25 -10 -11 -12 174 6 254 26 435 104
799 388 998 779 87 169 144 363 153 516 5 84 4 88 -10 60 -17 -35 -16 -42 -19
113 -2 123 4 150 22 90 9 -31 9 -29 10 23 2 140 -65 382 -155 558 -76 149
-168 272 -292 393 -201 195 -433 323 -707 389 -91 21 -299 37 -232 17 20 -6
37 -14 37 -17 0 -5 -255 -6 -270 -1 -3 1 11 8 30 15 l35 13 -60 0 c-33 -1 -73
-3 -90 -5z"/>
<path d="M439 2778 l-35 -182 -179 -34 c-99 -19 -181 -36 -182 -37 -2 -1 63
-68 145 -148 l147 -147 191 0 191 0 261 -260 c220 -220 257 -261 239 -265 -27
-6 -284 -55 -295 -56 -4 0 123 -34 283 -74 159 -41 290 -73 291 -72 1 1 -31
133 -71 292 -40 160 -74 287 -74 283 -1 -11 -51 -269 -56 -295 -4 -18 -44 18
-265 239 l-260 260 0 192 0 191 -147 148 c-81 81 -147 147 -148 147 0 0 -17
-82 -36 -182z m191 -12 l105 -106 5 -193 c4 -138 9 -199 19 -217 l14 -24 -26
17 c-22 15 -54 17 -213 17 l-187 0 -120 119 c-133 131 -133 132 -38 146 23 3
81 15 129 25 100 22 116 35 127 107 5 26 9 53 11 58 8 38 34 165 34 170 0 15
44 -22 140 -119z m785 -1044 c21 -89 36 -165 32 -168 -8 -9 -336 71 -350 85
-5 5 14 14 49 21 93 20 127 53 92 88 -6 6 -9 15 -5 19 4 4 13 1 19 -5 33 -33
70 1 82 73 4 22 10 49 13 59 10 36 27 -5 68 -172z"/>
<path d="M1318 2655 c-104 -17 -242 -62 -334 -108 l-66 -34 1 -114 2 -114 35
-35 c29 -30 37 -33 52 -22 9 7 58 33 107 57 301 150 645 117 916 -87 156 -118
254 -262 316 -465 23 -78 26 -105 26 -233 0 -129 -2 -155 -26 -233 -50 -163
-117 -278 -227 -387 -109 -110 -224 -177 -387 -227 -78 -23 -104 -26 -233 -26
-129 0 -155 3 -233 26 -48 15 -108 37 -135 49 -388 179 -595 625 -477 1031 22
77 82 210 117 259 11 15 8 23 -22 52 l-35 35 -114 2 -114 1 -34 -66 c-176
-349 -158 -782 47 -1121 334 -551 1054 -729 1605 -395 614 372 750 1207 285
1757 -157 187 -366 315 -619 379 -123 32 -325 40 -453 19z m391 -35 c440 -89
774 -397 892 -823 77 -282 31 -631 -115 -868 -14 -24 -32 -53 -39 -64 -19 -31
-106 -135 -152 -181 -302 -305 -783 -405 -1203 -250 -131 49 -295 155 -397
260 -169 171 -267 360 -316 603 -37 185 -18 406 53 599 16 46 40 98 52 116 21
32 23 33 106 36 101 3 121 -1 138 -28 11 -19 9 -29 -23 -85 -20 -36 -52 -113
-71 -172 -34 -102 -36 -115 -37 -248 -1 -169 21 -271 89 -412 54 -109 95 -167
180 -249 121 -118 276 -203 440 -240 107 -25 302 -24 398 1 119 31 264 99 350
165 104 80 218 224 272 346 88 196 104 430 43 631 -18 60 -94 230 -108 243 -4
3 -26 31 -49 62 -116 152 -295 267 -498 319 -73 19 -114 23 -229 22 -134 -1
-145 -2 -250 -37 -60 -21 -138 -53 -173 -72 -54 -31 -65 -34 -80 -22 -30 23
-32 31 -32 124 0 104 1 105 90 147 194 89 456 119 669 77z"/>
<path d="M1510 2077 c0 -7 16 -75 36 -153 l36 -141 43 -21 c102 -49 157 -131
163 -244 6 -95 -18 -159 -82 -224 -65 -64 -129 -88 -224 -82 -113 6 -195 61
-244 163 l-21 43 -141 36 c-78 20 -146 36 -153 36 -25 0 14 -168 60 -260 39
-79 149 -193 228 -237 175 -97 393 -99 573 -5 65 35 193 163 228 228 92 177
92 391 0 568 -39 75 -164 194 -242 233 -92 46 -260 85 -260 60z m185 -58 c158
-59 289 -201 339 -368 21 -72 21 -229 0 -302 -54 -186 -206 -335 -391 -384
-75 -20 -212 -20 -287 0 -188 49 -355 222 -397 410 -17 77 -11 81 97 55 126
-30 138 -36 164 -83 63 -115 172 -173 305 -165 311 21 406 442 135 595 -28 15
-54 39 -60 53 -18 45 -50 201 -44 212 8 13 69 3 139 -23z"/>
</g>
</svg>
